<?xml version="1.0" encoding="iso-8859-1"?>
<!-- Generator: Adobe Illustrator 19.0.0, SVG Export Plug-In . SVG Version: 6.00 Build 0)  -->
<svg version="1.1" id="Layer_1" xmlns="http://www.w3.org/2000/svg" xmlns:xlink="http://www.w3.org/1999/xlink" x="0px" y="0px"
	 viewBox="0 0 512.001 512.001" style="enable-background:new 0 0 512.001 512.001;" xml:space="preserve">
<path style="fill:#CAD1D8;" d="M24,16h464c13.254,0,24,10.745,24,24v432c0,13.254-10.745,24-24,24H24C10.745,496,0,485.255,0,472V40
	C0,26.745,10.745,16,24,16z"/>
<g>
	<circle style="fill:#9BA7AF;" cx="24.002" cy="47.995" r="7.998"/>
	<circle style="fill:#9BA7AF;" cx="56.002" cy="47.995" r="7.998"/>
	<circle style="fill:#9BA7AF;" cx="88.002" cy="47.995" r="7.998"/>
</g>
<path style="fill:#FFFFFF;" d="M24,80h464c4.418,0,8,3.582,8,8v384c0,4.418-3.582,8-8,8H24c-4.418,0-8-3.582-8-8V88
	C16,83.582,19.582,80,24,80z"/>
<g>
	<path style="fill:#E2E5E7;" d="M120,40h368c4.418,0,8,3.582,8,8l0,0c0,4.418-3.582,8-8,8H120c-4.418,0-8-3.582-8-8l0,0
		C112,43.582,115.582,40,120,40z"/>
	<path style="fill:#E2E5E7;" d="M80,120h240l0,0v32l0,0H80c-8.837,0-16-7.163-16-16l0,0C64,127.164,71.163,120,80,120z"/>
</g>
<path style="fill:#3CB54A;" d="M328,112h104c13.254,0,24,10.745,24,24.001l0,0c0,13.254-10.745,24-24,24H328l0,0V112L328,112z"/>
<g>
	<circle style="fill:#0E9347;" cx="359.998" cy="135.998" r="7.998"/>
	<circle style="fill:#0E9347;" cx="391.998" cy="135.998" r="7.998"/>
	<circle style="fill:#0E9347;" cx="423.998" cy="135.998" r="7.998"/>
</g>
<path style="fill:#CAD1D8;" d="M320,112H80c-13.254,0-24,10.745-24,24.001c0,13.255,10.745,24,24,24h248v-48L320,112L320,112z
	 M320,152.001H80c-8.837,0-16-7.163-16-16c0-8.837,7.163-16,16-16h240V152.001z"/>
<path style="fill:#595A66;" d="M168.001,200.001L168.001,200.001c0,4.418-3.582,8-8.001,8H96c-4.418,0-8.001-3.582-8.001-8l0,0
	c0-4.418,3.582-8.001,8.001-8.001h64C164.418,192,168.001,195.582,168.001,200.001z"/>
<g>
	<path style="fill:#CAD1D8;" d="M408,232.001L408,232.001c0,4.418-3.582,8-8,8H96c-4.418,0-8.001-3.582-8.001-8l0,0
		c0-4.418,3.582-8.001,8.001-8.001h304C404.418,224,408,227.582,408,232.001z"/>
	<path style="fill:#CAD1D8;" d="M264,264L264,264c0,4.418-3.582,8-8,8H96c-4.418,0-8.001-3.582-8.001-8l0,0c0-4.418,3.582-8,8.001-8
		h160C260.418,256,264,259.582,264,264z"/>
</g>
<path style="fill:#595A66;" d="M168.001,304L168.001,304c0,4.418-3.582,8-8.001,8H96c-4.418,0-8.001-3.582-8.001-8l0,0
	c0-4.418,3.582-8,8.001-8h64C164.418,296,168.001,299.582,168.001,304z"/>
<path style="fill:#CAD1D8;" d="M408,336L408,336c0,4.418-3.582,8-8,8H96c-4.418,0-8.001-3.582-8.001-8l0,0c0-4.418,3.582-8,8.001-8
	h304C404.418,328,408,331.582,408,336z"/>
<path style="fill:#595A66;" d="M168.001,408L168.001,408c0,4.418-3.582,8-8.001,8H96c-4.418,0-8.001-3.582-8.001-8l0,0
	c0-4.418,3.582-8,8.001-8h64C164.418,400,168.001,403.582,168.001,408z"/>
<g>
	<path style="fill:#CAD1D8;" d="M408,440L408,440c0,4.418-3.582,8-8,8H96c-4.418,0-8.001-3.582-8.001-8l0,0c0-4.418,3.582-8,8.001-8
		h304C404.418,432,408,435.582,408,440z"/>
	<path style="fill:#CAD1D8;" d="M264,368L264,368c0,4.418-3.582,8-8,8H96c-4.418,0-8.001-3.582-8.001-8l0,0c0-4.418,3.582-8,8.001-8
		h160C260.418,360,264,363.582,264,368z"/>
</g>
<g>
	<circle style="fill:#3689C9;" cx="64" cy="199.998" r="7.998"/>
	<circle style="fill:#3689C9;" cx="64" cy="303.995" r="7.998"/>
	<circle style="fill:#3689C9;" cx="64" cy="408.002" r="7.998"/>
</g>
<g>
</g>
<g>
</g>
<g>
</g>
<g>
</g>
<g>
</g>
<g>
</g>
<g>
</g>
<g>
</g>
<g>
</g>
<g>
</g>
<g>
</g>
<g>
</g>
<g>
</g>
<g>
</g>
<g>
</g>
</svg>
