<?xml version="1.0" encoding="iso-8859-1"?>
<!-- Generator: Adobe Illustrator 19.0.0, SVG Export Plug-In . SVG Version: 6.00 Build 0)  -->
<svg version="1.1" id="Layer_1" xmlns="http://www.w3.org/2000/svg" xmlns:xlink="http://www.w3.org/1999/xlink" x="0px" y="0px"
	 viewBox="0 0 512.001 512.001" style="enable-background:new 0 0 512.001 512.001;" xml:space="preserve">
<path style="fill:#CAD1D8;" d="M24,16h464c13.254,0,24,10.745,24,24v432c0,13.254-10.745,24-24,24H24C10.745,496,0,485.255,0,472V40
	C0,26.745,10.745,16,24,16z"/>
<g>
	<circle style="fill:#9BA7AF;" cx="24.002" cy="47.995" r="7.998"/>
	<circle style="fill:#9BA7AF;" cx="56.002" cy="47.995" r="7.998"/>
	<circle style="fill:#9BA7AF;" cx="88.002" cy="47.995" r="7.998"/>
</g>
<path style="fill:#FFFFFF;" d="M24,80h464c4.418,0,8,3.582,8,8v384c0,4.418-3.582,8-8,8H24c-4.418,0-8-3.582-8-8V88
	C16,83.582,19.582,80,24,80z"/>
<g>
	<path style="fill:#E2E5E7;" d="M120,40h368c4.418,0,8,3.582,8,8l0,0c0,4.418-3.582,8-8,8H120c-4.418,0-8-3.582-8-8l0,0
		C112,43.582,115.582,40,120,40z"/>
	<path style="fill:#E2E5E7;" d="M96,272h208l0,0v32l0,0H96c-8.837,0-16-7.163-16-16l0,0C80,279.163,87.163,272,96,272z"/>
</g>
<path style="fill:#3CB54A;" d="M312,264h104c13.254,0,24,10.745,24,24l0,0c0,13.254-10.745,24-24,24H312l0,0V264L312,264z"/>
<g>
	<circle style="fill:#0E9347;" cx="344.002" cy="288" r="7.998"/>
	<circle style="fill:#0E9347;" cx="376.002" cy="288" r="7.998"/>
	<circle style="fill:#0E9347;" cx="408.002" cy="288" r="7.998"/>
</g>
<path style="fill:#CAD1D8;" d="M304,264H96c-13.254,0-24.001,10.745-24.001,24c0,13.255,10.745,24,24.001,24h216v-48L304,264
	L304,264z M304,304H96c-8.837,0-16-7.163-16-16s7.163-16,16-16h208V304z"/>
<path style="fill:#595A66;" d="M293.68,210.32L275.44,192c2.904-4.838,4.477-10.358,4.56-16c0-17.673-14.327-32-32-32
	s-32,14.327-32,32s14.327,32,32,32c5.642-0.082,11.162-1.656,16-4.56l18.16,18.16c3.115,3.181,8.219,3.235,11.4,0.12
	C296.741,218.605,296.795,213.501,293.68,210.32z M232.001,176c0-8.837,7.163-16,16-16c8.837,0,16,7.163,16,16
	c0,8.837-7.163,16-16,16C239.164,192,232.001,184.837,232.001,176z"/>
<g>
	<path style="fill:#CAD1D8;" d="M368,440L368,440c0,4.418-3.582,8-8,8h-32c-4.418,0-8-3.582-8-8l0,0c0-4.418,3.582-8,8-8h32
		C364.418,432,368,435.582,368,440z"/>
	<path style="fill:#CAD1D8;" d="M304,440L304,440c0,4.418-3.582,8-8,8H152.001c-4.418,0-8.001-3.582-8.001-8l0,0
		c0-4.418,3.582-8,8.001-8h144C300.418,432,304,435.582,304,440z"/>
</g>
<g>
</g>
<g>
</g>
<g>
</g>
<g>
</g>
<g>
</g>
<g>
</g>
<g>
</g>
<g>
</g>
<g>
</g>
<g>
</g>
<g>
</g>
<g>
</g>
<g>
</g>
<g>
</g>
<g>
</g>
</svg>
